<svg xmlns="http://www.w3.org/2000/svg" viewBox="0 0 64 64"><defs><linearGradient id="linear-gradient" x1="8.55" y1="48.45" x2="55.45" y2="1.55" gradientUnits="userSpaceOnUse"><stop offset="0" stop-color="#d3e6f5"/><stop offset="1" stop-color="#f0f7fc"/></linearGradient><linearGradient id="linear-gradient-2" x1="3" y1="41" x2="61" y2="41" gradientUnits="userSpaceOnUse"><stop offset="0" stop-color="#54a5ff"/><stop offset="1" stop-color="#8ad3fe"/></linearGradient><style>.cls-6{fill:#ffb369}</style></defs><g id="Profits"><rect x="3" y="3" width="58" height="44" rx="7" style="fill:url(#linear-gradient)"/><path d="M42 45.78a1 1 0 0 0-1-.78H23a1 1 0 0 0-1 .78l-2 9a1 1 0 0 0 .2.85 1 1 0 0 0 .8.37h22a1 1 0 0 0 .78-.37 1 1 0 0 0 .2-.85z" style="fill:#4795ea"/><path d="M43 54H21a6 6 0 0 0-6 6 1 1 0 0 0 1 1h32a1 1 0 0 0 1-1 6 6 0 0 0-6-6z" style="fill:#54a5ff"/><path d="M60 35H4a1 1 0 0 0-1 1v4a7 7 0 0 0 7 7h44a7 7 0 0 0 7-7v-4a1 1 0 0 0-1-1z" style="fill:url(#linear-gradient-2)"/><path d="M33 40h-2a1 1 0 0 0 0 2h2a1 1 0 0 0 0-2z" style="fill:#f0f7fc"/><path class="cls-6" d="M32 22a1 1 0 0 0-1 1v8a1 1 0 0 0 2 0v-8a1 1 0 0 0-1-1zM38 20a1 1 0 0 0-1 1v10a1 1 0 0 0 2 0V21a1 1 0 0 0-1-1zM44 18a1 1 0 0 0-1 1v12a1 1 0 0 0 2 0V19a1 1 0 0 0-1-1zM26 24a1 1 0 0 0-1 1v6a1 1 0 0 0 2 0v-6a1 1 0 0 0-1-1zM20 26a1 1 0 0 0-1 1v4a1 1 0 0 0 2 0v-4a1 1 0 0 0-1-1zM44.92 8.62a.9.9 0 0 0-.54-.54A1 1 0 0 0 44 8h-3a1 1 0 0 0 0 2h.59l-.11.1A30.15 30.15 0 0 1 20 19a1 1 0 0 0 0 2 32.2 32.2 0 0 0 22.9-9.48l.1-.11V12a1 1 0 0 0 2 0V9a1 1 0 0 0-.08-.38z"/></g></svg>